<?xml version="1.0"?><svg version="1.2" baseProfile="tiny-ps" viewBox="0 0 300 300" xmlns="http://www.w3.org/2000/svg" xmlns:xlink="http://www.w3.org/1999/xlink"><title>RVC Tech</title><g><g fill="#fefefe" transform="matrix(.1 0 0 -.1 0 300)"><path d="M0 1500V0h3000v3000H0V1500z"/></g><g fill="#c8dce7" transform="matrix(.1 0 0 -.1 0 300)"><path d="m1415 2549-80-59-155-78-155-78-115-36c-63-21-141-42-172-48l-58-11v-604l11-90c15-121 51-255 97-362l38-88 57-88 57-88 93-96 92-95 82-62c45-34 128-88 185-121l102-59 90 47c281 147 516 389 627 647l37 85 26 105 25 105 11 104 10 103v557l-17 5c-10 2-45 10-78 17-204 40-516 186-686 320-20 16-38 29-40 29-2-1-40-28-84-61zm151-165c38-25 134-78 214-118l145-72 127-39 128-40v-170c0-93-5-231-10-306l-10-135-24-98-25-97-45-95c-54-113-114-200-204-296l-66-69-90-68c-50-37-117-82-148-100l-58-32-56 31c-153 88-318 236-414 371-99 141-156 278-185 443l-15 89v536l58 16c170 47 374 140 519 235 48 32 88 59 89 59 1 1 32-20 70-45zm-157-228c-73-26-127-77-160-150l-21-49-5-78-6-79h103v53c0 99 35 169 103 204l30 15h94l31-16c17-9 44-33 59-53l28-36 4-84 3-83h100l-4 93-4 93-27 46-27 47-37 30-37 30-45 16-45 15h-50l-51-1-36-13zm-279-424-28-29-7-46c-4-25-5-137-3-249l3-203 26-55 26-55 48-48c59-59 145-118 220-152l57-25h28c35 0 107 32 187 82l61 39 60 63 59 64 17 48 16 48v467l-11 22c-6 12-21 30-33 39l-21 18h-677l-28-28zm405-152c7 0 27-14 44-31l31-31v-96l-30-32-30-33 23-98c13-54 22-101 19-104s-45-5-93-5h-88l-5 8c-3 5 6 52 20 106l25 98-25 19-25 19-11 35-12 35 12 34c6 18 19 41 29 50 22 20 70 36 89 30 8-2 20-4 27-4z"/></g><g fill="#5fcce6" transform="matrix(.1 0 0 -.1 0 300)"><path d="M1407 2541c-95-70-255-155-395-210-103-41-276-91-314-91h-20l5-342 5-343 17-85c35-187 92-328 192-479l57-86 101-100 100-100 90-63c49-35 127-84 173-109l82-45 94 52c52 29 141 87 198 130l103 77 72 76c167 176 270 371 318 604l16 78 9 135c5 74 8 238 7 365l-2 229-105 27c-242 61-508 187-679 320-13 11-29 19-35 18-6 0-46-27-89-58zm176-163c34-23 117-70 184-104l123-62 132-42c73-23 139-44 146-46l12-3v-442l-10-97c-21-190-77-352-175-504l-48-73-86-88c-115-119-317-267-363-267-8 0-64 32-124 72l-109 72-105 105-106 106-45 70c-88 134-138 258-165 403l-16 87-5 276-6 277 59 16c170 47 374 138 524 234l95 61 13-4c7-3 40-24 75-47zm-164-221c-20-8-53-24-73-36l-36-23-29-41c-15-23-33-57-39-76l-12-34v-147h90v134l21 44 21 43 37 24c20 13 51 26 70 30l33 7 44-12 44-13 34-38 35-38 10-38c6-21 11-62 11-90v-53h92l-4 88-4 87-21 41c-27 50-76 100-128 126l-39 21-61 4-60 3-36-13zm-285-431-34-34v-487l29-60 28-60 49-45c89-83 240-170 294-170 62 0 246 113 319 196l40 46 21 56 21 55-3 240-3 239-33 29-32 29h-662l-34-34zm424-156 33-20 16-37 15-37-11-36-11-36-23-22-24-23 23-96c13-53 21-100 18-104l-5-9h-189v7c0 4 10 52 22 105l22 98-30 31-29 30v97l25 27c29 31 54 43 90 44l25 1 33-20z"/></g><g fill="#7388a6" transform="matrix(.1 0 0 -.1 0 300)"><path d="M1407 2541c-95-70-255-155-395-210-103-41-276-91-314-91h-20l5-342 5-343 17-85c35-187 92-328 192-479l57-86 101-100 100-100 90-63c49-35 127-84 173-109l82-45 94 52c52 29 141 87 198 130l103 77 72 76c167 176 270 371 318 604l16 78 9 135c5 74 8 238 7 365l-2 229-105 27c-242 61-508 187-679 320-13 11-29 19-35 18-6 0-46-27-89-58zm176-163c34-23 117-70 184-104l123-62 132-42c73-23 139-44 146-46l12-3v-442l-10-97c-21-190-77-352-175-504l-48-73-86-88c-115-119-317-267-363-267-8 0-64 32-124 72l-109 72-105 105-106 106-45 70c-88 134-138 258-165 403l-16 87-5 276-6 277 59 16c170 47 374 138 524 234l95 61 13-4c7-3 40-24 75-47zm-130-219c-24-4-59-15-78-25l-36-17-39-45-40-45-15-50-15-51v-126h90v145l19 35c10 19 34 48 54 64l37 29 53 5 54 4 39-20c48-24 69-47 89-95l15-36v-131h93l-6 84-6 85-25 48c-30 60-68 96-126 121-57 25-104 31-157 21zm-295-415-28-15-15-29-15-29v-438l14-46 14-46 36-50 37-50 62-47c34-26 95-63 136-82l73-35h58l84 41 84 42 75 70 74 69 24 53 24 53 3 216 4 216-12 42-11 42-32 19-32 20h-315l-315-1-27-15zm402-170c15-9 35-29 44-44l16-28v-63l-15-29c-8-16-23-33-32-39l-17-9 22-94c12-51 22-99 22-105v-13h-200v20c0 12 9 58 21 103l21 83-31 33-31 33v79l15 29 15 29 28 15 27 15 33 1h34l28-16z"/></g><g fill="#02afd8" transform="matrix(.1 0 0 -.1 0 300)"><path d="M1399 2532c-174-122-388-220-594-272l-110-28v-707l19-85c70-322 237-575 511-780 84-62 252-160 275-160 25 0 195 100 285 168 268 201 419 431 496 757l22 90 4 360 5 361-69 13c-37 8-115 29-173 48l-105 35-140 68-140 68-93 66c-51 36-94 66-95 65-1 0-45-31-98-67zm188-153c43-28 132-77 198-110l120-58 120-40c66-23 128-41 138-41h17v-525l-15-91c-36-226-129-417-286-588-72-78-211-188-311-247l-69-41-85 54c-107 66-254 188-315 259-108 127-172 238-219 379l-30 89-15 98-15 98v515h15c9 0 66 16 128 36l112 36 130 63c72 35 164 86 205 114 41 27 80 50 87 50 7 1 47-22 90-50zm-134-220c-24-4-59-15-78-25l-36-17-39-45-40-45-15-50-15-51v-126h90v145l19 35c10 19 34 48 54 64l37 29 53 5 54 4 39-20c48-24 69-47 89-95l15-36v-131h93l-6 84-6 85-25 48c-30 60-68 96-126 121-57 25-104 31-157 21zm-295-415-28-15-15-29-15-29v-438l14-46 14-46 36-50 37-50 62-47c34-26 95-63 136-82l73-35h58l84 41 84 42 75 70 74 69 24 53 24 53 3 216 4 216-12 42-11 42-32 19-32 20h-315l-315-1-27-15zm402-170c15-9 35-29 44-44l16-28v-63l-15-29c-8-16-23-33-32-39l-17-9 22-94c12-51 22-99 22-105v-13h-200v20c0 12 9 58 21 103l21 83-31 33-31 33v79l15 29 15 29 28 15 27 15 33 1h34l28-16z"/></g><g fill="#043063" transform="matrix(.1 0 0 -.1 0 300)"><path d="M1399 2532c-174-122-388-220-594-272l-110-28v-707l19-85c70-322 237-575 511-780 84-62 252-160 275-160 25 0 195 100 285 168 268 201 419 431 496 757l22 90 4 360 5 361-69 13c-37 8-115 29-173 48l-105 35-140 68-140 68-93 66c-51 36-94 66-95 65-1 0-45-31-98-67zm188-153c43-28 132-77 198-110l120-58 120-40c66-23 128-41 138-41h17v-525l-15-91c-36-226-129-417-286-588-72-78-211-188-311-247l-69-41-85 54c-107 66-254 188-315 259-108 127-172 238-219 379l-30 89-15 98-15 98v515h15c9 0 66 16 128 36l112 36 130 63c72 35 164 86 205 114 41 27 80 50 87 50 7 1 47-22 90-50z"/></g></g></svg>